<?xml version="1.0" encoding="UTF-8" standalone="no"?>
<!DOCTYPE svg PUBLIC "-//W3C//DTD SVG 1.1//EN"
 "http://www.w3.org/Graphics/SVG/1.1/DTD/svg11.dtd">
<!-- Generated by graphviz version 2.38.0 (20140413.2041)
 -->
<!-- Title: G Pages: 1 -->
<svg width="156pt" height="95pt"
 viewBox="0.00 0.00 155.58 95.00" xmlns="http://www.w3.org/2000/svg" xmlns:xlink="http://www.w3.org/1999/xlink">
<g id="graph0" class="graph" transform="scale(1 1) rotate(0) translate(4 91)">
<title>G</title>
<polygon fill="white" stroke="none" points="-4,4 -4,-91 151.58,-91 151.58,4 -4,4"/>
<g id="clust1" class="cluster"><title>cluster_Global</title>
<path fill="none" stroke="gray" d="M20,-8C20,-8 127.58,-8 127.58,-8 133.58,-8 139.58,-14 139.58,-20 139.58,-20 139.58,-67 139.58,-67 139.58,-73 133.58,-79 127.58,-79 127.58,-79 20,-79 20,-79 14,-79 8,-73 8,-67 8,-67 8,-20 8,-20 8,-14 14,-8 20,-8"/>
<text text-anchor="middle" x="73.79" y="-66.2" font-family="Times,serif" font-size="11.00" fill="gray">\</text>
</g>
<!-- \\GoogleMapsGeocoder -->
<g id="node1" class="node"><title>\\GoogleMapsGeocoder</title>
<polygon fill="none" stroke="black" points="131.371,-52 16.2092,-52 16.2092,-16 131.371,-16 131.371,-52"/>
<text text-anchor="middle" x="73.79" y="-30.7" font-family="Times,serif" font-size="11.00">GoogleMapsGeocoder</text>
</g>
</g>
</svg>
